<svg viewBox="50 30 405 405" xmlns="http://www.w3.org/2000/svg">
	<g data-bx-workspace="master" xmlns="http://www.w3.org/2000/svg" viewBox="44.638 26.681 410.723 415.341">
		<defs>
			<linearGradient id="gradient-1" data-bx-pinned="true"></linearGradient>
			<linearGradient gradientUnits="userSpaceOnUse" x1="161.365" y1="106.012" x2="161.365" y2="297.014" id="gradient-3" gradientTransform="matrix(1.220275, 0, 0, 1.220275, -11.429538, -20.786443)">
				<stop offset="0" style="stop-color: rgba(35, 182, 42, 1)"></stop>
				<stop offset="1" style="stop-color: rgba(19, 96, 22, 1)"></stop>
			</linearGradient>
			<linearGradient xmlns="http://www.w3.org/2000/svg" gradientUnits="userSpaceOnUse" x1="219.727" y1="210.75" x2="219.727" y2="409.029" id="gradient-4" gradientTransform="matrix(1, 0, 0, 1, 24.628029, 14.366338)">
				<stop offset="0.35" style="stop-color: #361d00;" />
				<stop offset="1" style="stop-color: #ab4d01;" />
			</linearGradient>
			<linearGradient gradientUnits="userSpaceOnUse" x1="277.065" y1="51.107" x2="277.065" y2="237.501" id="gradient-0">
				<stop offset="0" style="stop-color: rgba(99, 175, 24, 1)"></stop>
				<stop offset="1" style="stop-color: rgba(48, 85, 12, 1)"></stop>
			</linearGradient>
			<linearGradient gradientUnits="userSpaceOnUse" x1="342.228" y1="166.616" x2="342.228" y2="348.776" id="gradient-2">
				<stop offset="0" style="stop-color: rgba(73, 191, 41, 1)"></stop>
				<stop offset="1" style="stop-color: rgba(41, 107, 23, 1)"></stop>
			</linearGradient>
		</defs>
		<circle style="fill-rule: nonzero; fill: url(&quot;#gradient-0&quot;);" cx="277.065" cy="144.304" r="93.197"></circle>
		<path d="M 201.898 259.493 C 201.898 288.03 202.634 314.204 196.767 341.586 C 193.89 355.012 183.995 370.209 177.783 382.633 C 172.678 392.843 165.215 402.124 160.338 411.878 C 159.99 412.574 154.694 417.522 154.694 417.522 C 154.694 417.522 152.239 422.754 152.642 422.653 C 160.789 420.616 178.408 411.566 185.992 407.774 C 191.608 404.966 195.815 400.272 200.359 396.486 C 201.506 395.529 206.203 389.303 207.542 389.303 C 209.206 389.303 211.917 407.316 212.159 408.287 C 214.05 415.851 221.477 418.118 226.526 423.166 C 228.012 424.652 231.169 418.471 231.657 417.009 C 234.559 408.301 237.309 396.981 241.405 388.79 C 242.208 387.185 248.754 395.567 249.102 395.973 C 255.739 403.716 261.855 406.454 269.625 410.339 C 270.482 410.767 276.233 414.054 276.808 412.904 C 280.725 405.07 274.461 391.649 280.913 385.198 C 281.992 384.118 286.506 390.709 287.583 391.355 C 296.828 396.902 301.787 399.484 311.184 404.182 C 311.8 404.49 335.548 411.894 335.812 411.365 C 338.836 405.318 318.124 390.468 315.802 385.711 C 309.496 372.789 300.496 367.22 297.844 354.413 C 287.746 305.64 297.961 283.702 301.949 251.796 C 303.078 242.761 308.106 234.067 308.106 225.116" style="fill: url(&quot;#gradient-4&quot;);"></path>
		<circle style="fill: url(&quot;#gradient-2&quot;);" cx="342.228" cy="257.696" r="91.08"></circle>
		<circle style="fill: url(&quot;#gradient-3&quot;);" cx="185.48" cy="225.115" r="116.538"></circle>
	</g>
</svg>
